<svg width="931" height="836" viewBox="0 0 931 836" fill="none" xmlns="http://www.w3.org/2000/svg">
<g opacity="0.08">
<path d="M-95.8049 979.047L-100.022 979.039C-44.9823 916.201 78.5523 870.039 216.779 860.801C254.209 858.339 278.377 844.361 286.749 820.34C292.895 802.64 290.405 780.391 279.38 755.912C268.355 731.54 250.055 707.259 226.374 685.71C217.322 677.47 207.01 667.015 196.066 655.82C145.24 603.965 75.5785 533.1 13.6362 565.458C-20.2369 583.213 -26.6232 616.831 -33.3293 652.347C-40.1417 688.39 -47.1673 725.697 -85.6792 743.549C-97.2855 748.905 -110.681 752.676 -125.866 754.862L-125.854 748.431C-111.618 746.348 -99.172 742.787 -88.3043 737.746C-52.7467 721.259 -46.254 687.113 -39.4415 651.071C-32.7355 615.555 -25.8165 578.88 10.8001 559.76C59.1298 534.546 110.308 566.582 154.724 606.512C189.99 634.724 222.291 669.994 246.079 690.595C327.971 761.377 353.079 868.111 244.153 881.197C136.913 894.181 39.1195 930.691 -22.641 979.074L-95.8049 979.047Z" fill="#53BDB1"/>
<path d="M96.147 -167.722C108.485 -169.492 121.353 -173.264 134.96 -177.245C158.271 -184.055 182.109 -190.97 205.193 -188.609C225.754 -190.575 245.992 -188.957 264.528 -178.697C286.645 -166.428 293.866 -136.791 284.654 -114.985C255.75 -46.6174 152.745 -43.2196 138.371 34.7677L138.371 34.8732C129.456 67.4329 147.733 104.68 167.824 129.07C202.012 170.352 264.361 204.412 320.75 211.472C323.28 211.371 325.916 211.376 328.446 211.275C351.008 210.683 375.994 210.096 400.766 211.828C442.935 212.115 486.783 216.306 520.27 237.135C573.133 269.912 558.222 353.802 508.489 338.847C506.167 340.635 503.634 342.212 500.996 343.262C490.657 347.565 473.05 348.482 448.629 327.88C422.102 305.588 397.346 295.528 370.778 296.007C347.373 296.491 322.056 305.196 288.708 324.111C259.159 340.926 230.755 365.754 200.767 392.161C154.412 432.771 106.368 474.853 52.1593 486.668C18.9378 493.882 -19.1181 492.758 -61.0593 483.194C-81.6084 478.518 -103.208 471.838 -125.542 463.152L-125.53 456.405C-102.669 465.408 -80.6484 472.3 -59.6777 477.082C-18.6849 486.434 18.5275 487.555 50.7998 480.551C103.427 469.049 150.837 427.598 196.664 387.41C226.969 360.898 255.584 335.753 285.661 318.624C319.959 299.077 346.225 290.164 370.684 289.681C398.939 289.1 424.959 299.689 452.749 323.038C470.223 337.724 486.027 342.602 498.582 337.353C509.766 332.63 517.273 320.098 518.568 303.654C520.078 284.997 512.642 257.679 487.053 241.713C443.352 214.54 379.673 216.217 328.54 217.495C323.269 217.591 318.103 217.792 313.042 217.889C251.894 219.148 174.685 182.637 133.66 133.014C113.042 108.097 94.3465 69.5831 103.579 35.9697L103.579 35.8643C113.128 2.25154 148.065 -20.3512 181.945 -42.1125C206.326 -57.8818 229.336 -72.7048 242.652 -91.0244C255.44 -108.502 260.533 -126.731 257.083 -142.234C254.154 -155.312 245.529 -165.975 231.311 -173.908C201.928 -190.302 168.702 -180.558 136.636 -171.233C122.818 -167.147 109.739 -163.375 96.9791 -161.5C60.2821 -156.19 17.066 -160.38 -24.6584 -173.212C-64.0647 -185.407 -98.9248 -204.763 -124.184 -228.318L-124.168 -237.068C-99.3328 -212.354 -63.5258 -191.942 -22.7497 -179.323C17.4994 -166.81 60.8209 -162.62 96.147 -167.722Z" fill="#53BDB1"/>
<path d="M360.876 885.729C418.597 855.788 473.258 827.528 491.979 793.721C503.508 772.868 505.755 754.95 498.931 738.914C480.244 695.761 397.103 674.632 323.762 655.944C268.44 641.928 220.705 629.718 201.659 610.074C178.825 586.524 169.91 561.417 175.122 535.492C189.911 461.301 314.418 402.067 352.294 385.69C412.328 359.654 455.227 364.054 505.658 401.254C511.975 405.904 518.606 411.398 525.659 417.209C556.607 442.673 595.241 474.264 635.222 459.788C666.554 448.459 698.906 455.581 728.696 480.41C753.538 501.223 775.512 533.839 788.836 569.918C793.662 582.999 797.854 596.606 801.941 609.792C817.034 658.736 831.393 704.937 877.094 734.433C891.836 743.948 909.424 753.362 928.596 761.726L928.584 768.578C908.042 759.791 889.295 749.847 873.605 739.698C826.009 708.933 810.707 659.462 795.824 611.573C791.736 598.493 787.649 584.991 782.823 572.015C769.919 536.886 748.681 505.22 724.576 485.146C705.102 468.876 674.137 452.268 637.32 465.59C593.963 481.325 553.856 448.466 521.644 421.946C514.697 416.241 508.065 410.852 501.853 406.202C453.634 370.587 412.421 366.401 354.814 391.387C333.291 400.731 291.508 420.475 253.295 447.816C211.281 477.996 187.085 507.893 181.34 536.557C176.659 560.375 184.945 583.583 206.201 605.549C223.984 623.925 273.3 636.455 325.355 649.727C400.171 668.733 484.892 690.288 504.734 736.288C512.398 754.013 509.937 774.25 497.561 796.683C477.888 832.175 422.489 860.856 363.818 891.217C311.479 918.321 257.874 946.161 228.716 979.528L220.493 979.513C249.55 943.405 305.794 914.199 360.876 885.729Z" fill="#53BDB1"/>
<path d="M480.122 923.155C514.415 906.244 546.809 890.173 562.345 868.906C586.653 835.636 596.21 797.49 589.212 761.423C582.11 724.617 558.238 691.892 522.118 669.477C507.586 660.49 479.243 651.794 449.109 642.567C388.84 624.114 320.563 603.222 311.562 567.151C308.632 555.338 310.022 544.693 315.731 535.531C330.956 510.995 373.881 501.69 408.262 494.268C423.133 491.026 435.999 488.309 443.912 484.844C486.748 466.262 517.42 469.48 553.427 496.007C558.797 500.022 564.06 504.46 569.744 509.214C584.375 521.575 599.428 534.464 616.816 538.185C625.352 539.993 633.472 538.426 642.12 536.755C652.455 534.771 663.212 532.682 674.168 537.024C717.783 553.971 733.697 614.829 746.47 663.769C750.03 677.375 753.38 690.243 756.946 700.581C780.228 767.883 812.004 859.976 880.239 904.061C893.507 912.624 909.938 920.982 927.847 927.973L927.835 934.72C908.555 927.411 890.86 918.523 876.75 909.326C806.726 864.077 774.424 770.719 750.933 702.573C747.262 691.919 743.912 678.945 740.247 665.234C727.788 617.665 712.398 558.495 671.733 542.713C662.357 539.111 653.077 540.887 643.163 542.766C634.305 544.437 625.024 546.213 615.329 544.192C596.36 540.151 580.676 526.84 565.518 513.95C560.045 509.302 554.782 504.865 549.623 501.06C515.722 476.013 486.841 473.115 446.327 490.647C437.886 494.321 424.703 497.144 409.516 500.49C376.189 507.704 334.847 516.695 320.996 538.915C316.132 546.707 315.063 555.35 317.574 565.686C325.738 598.382 395.068 619.592 450.912 636.561C482.732 646.318 510.232 654.696 525.396 664.106C562.99 687.578 587.914 721.676 595.329 760.274C602.64 798.134 592.763 837.966 567.399 872.71C550.912 895.241 517.884 911.627 482.853 928.853C451.936 944.084 420.386 959.735 400.108 980.045L391.252 980.029C412.063 956.768 446.462 939.751 480.122 923.155Z" fill="#53BDB1"/>
<path d="M591.226 934.635L593.867 931.477C626.726 891.37 663.918 846 646.833 791.36C642.64 777.858 635.601 764.667 628.876 752.004C614.062 724.04 598.723 695.126 611.648 660.254C619.488 639.078 630.567 633.511 638.581 632.471C651.446 630.913 665.345 640.005 677.542 658.054C696.047 685.393 704.316 718.089 712.271 749.73C716.144 765.024 720.121 780.845 725.155 795.508C745.605 854.582 772.557 932.749 825.077 980.812L815.905 980.796C765.602 931.472 739.278 855.414 719.247 797.605C714.109 782.626 710.026 766.699 706.153 751.301C698.303 720.186 690.138 688.123 672.264 661.629C661.539 645.902 649.536 637.552 639.308 638.798C630.45 639.836 622.95 648.046 617.547 662.479C605.576 694.717 619.655 721.098 634.469 749.062C641.298 762.042 648.443 775.444 652.845 789.473L652.845 789.578C670.873 847.488 632.519 894.227 598.709 935.597L596.068 938.755C595.222 939.808 593.955 941.281 592.475 943.071C581.17 956.65 571.344 969.072 563.1 980.338L555.193 980.323C565.551 965.899 577.174 951.477 587.633 938.951C589.218 937.161 590.38 935.687 591.226 934.635Z" fill="#53BDB1"/>
<path d="M314.16 -57.3488C343.291 -68.9767 369.718 -72.957 388.566 -68.6708C415.397 -62.5623 430.135 -41.8828 444.302 -21.8238C449.452 -14.6721 454.811 -7.13874 460.582 -0.558248C475.689 16.6298 493.821 25.5868 513.05 35.1114C533.082 45.0423 553.775 55.2244 570.546 75.4657L570.825 75.9249C577.389 86.7909 581.821 96.8973 584.132 105.946C600.207 143.02 600.828 185.722 564.132 199.873C517.885 217.657 466.2 154.041 426.369 137.546C372.311 115.091 318.806 146.005 263.356 130.132C223.685 118.792 198.038 75.0549 200.792 57.1879C201.104 55.0372 201.644 52.8212 202.255 50.6828C202.31 49.3421 202.437 48.079 202.641 46.7445C205.413 28.4307 217.793 8.72356 238.502 -10.3406C258.752 -29.1253 286.317 -46.1898 314.16 -57.3488ZM510.128 40.8101C491.191 31.4468 471.671 21.7609 455.708 3.6421C449.723 -3.17108 444.293 -10.782 439.077 -18.1602C424.904 -38.0703 411.433 -56.9067 387.116 -62.4636C351.195 -70.6642 284.986 -44.6781 242.715 -5.7644C223.091 12.3001 211.434 30.7688 208.873 47.5991C206.113 65.6151 222.243 79.7119 256.529 89.5608C280.272 96.3624 305.14 99.4054 329.27 102.269C361.412 106.209 394.598 110.193 425.847 123.125C437.216 127.848 448.291 134.275 458.925 140.534C486.385 156.666 512.393 171.843 544.236 159.581C554.169 155.739 562.196 151.073 567.858 145.86C584.146 130.866 583.407 109.05 565.541 79.213C549.537 60.2718 529.505 50.3409 510.128 40.8101Z" fill="#53BDB1"/>
<path d="M45.892 693.806C48.636 692.124 51.6956 690.865 54.9655 689.922C75.6392 684.055 99.981 690.214 121.668 706.7C146.935 725.933 163.329 755.059 163.282 780.888C163.277 783.629 163.061 786.475 162.74 789.11C161.138 800.493 155.218 809.549 145.085 816.172C124.82 829.313 90.3458 829.567 68.1128 823.202C55.2578 819.488 43.5755 808.609 35.276 792.569C27.7119 778.007 23.422 760.077 23.4524 743.315C23.5996 720.227 31.7501 702.109 45.892 693.806ZM69.8107 817.09C87.6179 822.288 121.667 823.72 141.616 810.789C150.165 805.217 155.134 797.636 156.416 788.15C156.737 785.726 156.952 783.301 156.957 780.771C157 756.84 141.658 729.613 117.864 711.648C97.7558 696.43 75.4163 690.697 56.6414 695.934C53.899 696.667 51.3667 697.822 49.0449 699.188C36.8026 706.44 29.8156 722.452 29.7778 743.326C29.829 773.267 45.0489 809.982 69.8107 817.09Z" fill="#53BDB1"/>
<path d="M37.5356 340.655C34.4498 341.569 31.1684 341.994 27.766 342.058C6.27836 342.374 -15.64 330.125 -32.3217 308.588C-51.7498 283.471 -60.0461 251.094 -53.3159 226.157C-52.6017 223.511 -51.6564 220.818 -50.6643 218.355C-46.1708 207.775 -38.1086 200.56 -26.6069 196.785C-3.63096 189.337 29.7342 198.014 49.562 209.917C61.0179 216.831 69.4863 230.364 73.3516 248.005C76.889 264.028 76.3922 282.458 72.0244 298.641C65.9066 320.904 53.3445 336.295 37.5356 340.655ZM46.3402 215.381C30.4851 205.751 -2.0334 195.555 -24.649 202.882C-34.3493 206.052 -41.1109 212.089 -44.8046 220.92C-45.7418 223.178 -46.5771 225.464 -47.2364 227.907C-53.4722 251.012 -45.6993 281.282 -27.3665 304.793C-11.8818 324.697 8.21253 336.017 27.7032 335.817C30.5419 335.819 33.2868 335.359 35.8832 334.64C49.5853 330.803 60.4784 317.146 65.9175 296.993C73.6172 268.059 68.4185 228.656 46.3402 215.381Z" fill="#53BDB1"/>
<path d="M201.958 247.79C206.429 250.382 211.546 255.639 210.457 265.761C209.446 275.231 202.638 289.207 195.91 295.661C186.224 304.981 166.91 302.744 153.944 295.227C144.703 289.869 139.301 282.356 139.318 274.6C139.295 273.093 139.508 271.524 139.913 269.966C141.962 261.795 150.034 254.228 161.925 249.173C174.17 244.026 191.301 241.611 201.958 247.79ZM144.852 271.237C144.589 272.378 144.443 273.489 144.415 274.567C144.474 280.476 148.861 286.305 156.536 290.756C170.844 299.051 186.205 297.801 192.396 291.931C198.179 286.422 204.425 273.416 205.321 265.173C205.957 259.268 203.986 254.939 199.365 252.261C191.541 247.724 176.984 248.445 163.829 253.961C153.641 258.31 146.528 264.74 144.852 271.237Z" fill="#53BDB1"/>
<path d="M91.9192 -26.0236C92.3095 -8.7334 85.0042 8.43738 69.6846 26.7533C45.5962 55.3849 10.5657 71.8729 -23.1988 87.8361C-25.309 88.7811 -27.3137 89.7263 -29.3187 90.7769C-103.073 125.644 -163.013 158.638 -215.601 206.405C-217.924 208.51 -220.564 210.824 -223.415 213.454C-227.639 217.242 -232.496 221.556 -237.67 226.29L-237.655 217.751C-234.064 214.489 -230.686 211.544 -227.623 208.808C-224.772 206.283 -222.132 203.863 -219.809 201.864C-166.588 153.571 -106.226 120.367 -31.9441 85.1847C-29.9394 84.2395 -27.8292 83.2945 -25.7188 82.2441C7.51799 66.5962 41.8099 50.4231 65.0531 22.8442C79.3162 5.79146 86.1975 -10.115 85.8041 -25.7184C85.4194 -46.1713 80.0742 -63.4704 70.3974 -75.7171C59.8791 -89.0195 45.0265 -95.6881 26.155 -95.3006C-7.2653 -94.7286 -37.5487 -79.9188 -66.8825 -65.5289C-96.1107 -51.2443 -126.183 -36.5395 -160.238 -35.0198C-189.02 -33.8069 -215.58 -37.6502 -237.177 -45.9124L-237.165 -52.6595C-216.095 -44.1874 -189.536 -40.1332 -160.542 -41.3458C-127.859 -42.7625 -98.3137 -57.2574 -69.7186 -71.2269C-39.8573 -85.8267 -8.94082 -100.952 25.9556 -101.626C65.5964 -102.503 90.9509 -73.4659 91.9192 -26.0236Z" fill="#53BDB1"/>
</g>
</svg>
