<svg width="614" height="719" viewBox="0 0 614 719" fill="none" xmlns="http://www.w3.org/2000/svg">
<g opacity="0.5">
<path d="M604.421 718.598L606.91 718.598C574.49 681.449 501.624 654.071 420.046 648.472C397.956 646.979 383.706 638.703 378.79 624.516C375.181 614.062 376.674 600.932 383.208 586.496C389.741 572.122 400.568 557.81 414.569 545.116C419.92 540.262 426.018 534.102 432.49 527.506C462.544 496.953 503.737 455.199 540.263 474.364C560.238 484.88 563.972 504.729 567.892 525.699C571.875 546.98 575.982 569.008 598.694 579.586C605.539 582.76 613.442 585 622.402 586.306L622.402 582.51C614.002 581.266 606.659 579.15 600.25 576.164C579.28 566.395 575.484 546.234 571.501 524.953C567.581 503.983 563.536 482.328 541.943 471.004C513.444 456.07 483.203 474.925 456.944 498.446C436.099 515.061 416.996 535.844 402.933 547.978C354.522 589.67 339.589 652.642 403.868 660.482C467.151 668.259 524.834 689.913 561.237 718.536L604.421 718.598Z" fill="#388379"/>
<path d="M492.341 41.5214C485.061 40.4637 477.469 38.2236 469.442 35.8592C455.69 31.8147 441.627 27.7081 428 29.0772C415.866 27.8951 403.919 28.8286 392.967 34.8646C379.9 42.0829 375.607 59.5683 381.02 72.4489C398.008 112.833 458.803 114.948 467.204 160.995L467.204 161.057C472.431 180.284 461.604 202.25 449.719 216.624C429.496 240.955 392.659 260.992 359.369 265.099C357.875 265.037 356.319 265.037 354.826 264.975C341.51 264.602 326.762 264.228 312.139 265.224C287.249 265.349 261.364 267.776 241.576 280.035C210.339 299.325 219.051 348.856 248.422 340.082C249.791 341.14 251.284 342.073 252.84 342.696C258.938 345.247 269.329 345.807 283.766 333.673C299.446 320.543 314.069 314.631 329.75 314.942C343.564 315.253 358.498 320.417 378.162 331.618C395.585 341.574 412.324 356.259 429.996 371.877C457.313 395.896 485.626 420.785 517.61 427.816C537.211 432.11 559.674 431.487 584.44 425.886C596.574 423.148 609.33 419.228 622.522 414.125L622.522 410.143C609.019 415.432 596.014 419.477 583.631 422.277C559.425 427.754 537.46 428.376 518.419 424.207C487.368 417.363 459.429 392.847 432.423 369.077C414.564 353.396 397.7 338.525 379.966 328.382C359.743 316.808 344.248 311.519 329.812 311.209C313.136 310.835 297.766 317.058 281.339 330.81C271.009 339.46 261.676 342.322 254.271 339.211C247.675 336.411 243.257 329.006 242.51 319.299C241.639 308.285 246.056 292.169 261.177 282.772C287 266.78 324.585 267.837 354.764 268.646C357.875 268.708 360.924 268.833 363.911 268.895C400.002 269.703 445.613 248.235 469.88 218.989C482.076 204.303 493.152 181.591 487.738 161.741L487.738 161.679C482.138 141.829 461.541 128.451 441.566 115.57C427.192 106.237 413.627 97.4631 405.786 86.636C398.257 76.3067 395.27 65.5417 397.323 56.3945C399.065 48.6786 404.168 42.3937 412.568 37.7267C429.929 28.0815 449.53 33.8682 468.447 39.4061C476.598 41.8327 484.314 44.0727 491.843 45.1927C513.498 48.3659 539.01 45.9388 563.652 38.4092C586.924 31.2529 607.52 19.8654 622.454 5.98892L622.454 0.82422C607.769 15.3852 586.613 27.3949 562.531 34.8001C538.761 42.143 513.187 44.5702 492.341 41.5214Z" fill="#388379"/>
<path d="M334.967 663.033C300.93 645.299 268.697 628.561 257.683 608.587C250.9 596.267 249.593 585.688 253.637 576.23C264.713 550.78 313.809 538.396 357.118 527.444C389.786 519.23 417.974 512.073 429.237 500.499C442.739 486.623 448.028 471.813 444.979 456.506C436.329 412.699 362.903 377.605 340.564 367.898C305.157 352.467 279.831 355.018 250.026 376.922C246.292 379.66 242.372 382.896 238.203 386.318C219.909 401.315 197.072 419.92 173.489 411.334C155.008 404.614 135.905 408.783 118.295 423.406C103.61 435.665 90.6052 454.893 82.7029 476.174C79.8406 483.89 77.3517 491.917 74.925 499.695C65.9649 528.568 57.4404 555.823 30.4348 573.184C21.7234 578.784 11.3318 584.323 0.00684812 589.238L0.0069028 593.283C12.1408 588.118 23.2168 582.269 32.4883 576.295C60.614 558.187 69.6985 529.003 78.5341 500.753C80.9608 493.037 83.3875 485.072 86.2497 477.418C93.9032 456.697 106.472 438.029 120.722 426.206C132.233 416.623 150.528 406.854 172.244 414.756C197.819 424.09 221.527 404.737 240.568 389.118C244.674 385.758 248.595 382.585 252.266 379.847C280.765 358.876 305.095 356.449 339.07 371.258C351.764 376.796 376.406 388.494 398.931 404.673C423.697 422.531 437.947 440.203 441.308 457.128C444.046 471.191 439.13 484.881 426.561 497.824C416.045 508.651 386.923 515.994 356.184 523.773C312.004 534.911 261.975 547.544 250.215 574.674C245.673 585.128 247.104 597.076 254.385 610.329C265.959 631.299 298.627 648.286 333.225 666.269C364.089 682.323 395.7 698.812 412.874 718.537L417.728 718.537C400.615 697.194 367.449 679.896 334.967 663.033Z" fill="#388379"/>
<path d="M264.543 684.997C244.32 674.979 225.217 665.459 216.069 652.89C201.757 633.226 196.157 610.701 200.325 589.42C204.556 567.703 218.681 548.413 240.025 535.221C248.612 529.932 265.35 524.829 283.147 519.415C318.739 508.587 359.061 496.328 364.412 475.047C366.155 468.078 365.346 461.793 361.985 456.38C353.025 441.881 327.699 436.344 307.413 431.926C298.639 429.997 291.048 428.379 286.381 426.326C261.117 415.312 243.01 417.179 221.729 432.798C218.555 435.163 215.444 437.776 212.084 440.576C203.435 447.857 194.537 455.449 184.27 457.627C179.229 458.684 174.438 457.751 169.335 456.756C163.237 455.573 156.89 454.329 150.419 456.88C124.658 466.837 115.2 502.741 107.609 531.614C105.493 539.641 103.502 547.232 101.387 553.33C87.5731 593.03 68.7195 647.353 28.3978 673.302C20.5575 678.342 10.8503 683.258 0.272087 687.365L0.27214 691.348C11.6593 687.054 22.1131 681.827 30.4513 676.413C71.8308 649.78 90.9955 594.71 104.933 554.513C107.111 548.228 109.102 540.574 111.28 532.485C118.685 504.421 127.831 469.512 151.85 460.241C157.388 458.125 162.864 459.183 168.713 460.302C173.94 461.298 179.416 462.356 185.141 461.173C196.341 458.809 205.613 450.968 214.573 443.377C217.809 440.639 220.92 438.025 223.969 435.785C244.005 421.037 261.055 419.357 284.95 429.748C289.928 431.926 297.706 433.606 306.667 435.597C326.33 439.89 350.722 445.241 358.874 458.371C361.736 462.976 362.359 468.078 360.865 474.176C356.012 493.466 315.068 505.912 282.089 515.868C263.297 521.593 247.056 526.509 238.096 532.047C215.881 545.862 201.134 565.961 196.716 588.735C192.361 611.074 198.148 634.595 213.083 655.13C222.79 668.446 242.267 678.153 262.926 688.357C281.158 697.38 299.763 706.651 311.711 718.66L316.938 718.66C304.679 704.909 284.393 694.829 264.543 684.997Z" fill="#388379"/>
<path d="M198.953 691.655L197.398 689.789C178.045 666.081 156.142 639.262 166.284 607.029C168.773 599.064 172.942 591.286 176.924 583.819C185.698 567.329 194.782 550.279 187.191 529.683C182.586 517.175 176.052 513.878 171.323 513.255C163.731 512.322 155.518 517.674 148.3 528.314C137.348 544.431 132.433 563.721 127.704 582.388C125.402 591.411 123.037 600.745 120.051 609.394C107.917 644.241 91.9257 690.35 60.8756 718.663L66.2892 718.663C96.0326 689.603 111.651 644.739 123.535 610.639C126.584 601.803 129.011 592.407 131.313 583.322C135.98 564.965 140.833 546.049 151.411 530.43C157.758 521.158 164.852 516.242 170.887 516.989C176.114 517.611 180.532 522.465 183.706 530.99C190.738 550.03 182.4 565.587 173.626 582.077C169.582 589.73 165.35 597.633 162.737 605.909L162.737 605.971C152.035 640.133 174.623 667.761 194.535 692.215L196.091 694.082C196.589 694.704 197.336 695.575 198.207 696.633C204.865 704.66 210.652 712.003 215.506 718.661L220.173 718.661C214.074 710.136 207.23 701.611 201.069 694.207C200.136 693.149 199.451 692.278 198.953 691.655Z" fill="#388379"/>
<path d="M363.542 106.438C346.36 99.5441 330.766 97.1667 319.636 99.6766C303.793 103.254 295.072 115.444 286.689 127.268C283.642 131.484 280.471 135.925 277.057 139.803C268.123 149.932 257.411 155.2 246.051 160.801C234.217 166.641 221.992 172.629 212.072 184.559L211.906 184.83C208.02 191.236 205.394 197.197 204.02 202.535C194.493 224.401 194.081 249.605 215.725 257.996C243.003 268.542 273.577 231.048 297.105 221.354C329.036 208.158 360.584 226.461 393.33 217.151C416.757 210.5 431.942 184.712 430.335 174.163C430.153 172.893 429.837 171.585 429.479 170.322C429.448 169.53 429.374 168.785 429.255 167.997C427.638 157.184 420.352 145.539 408.149 134.265C396.216 123.156 379.964 113.054 363.542 106.438ZM247.769 164.168C258.957 158.661 270.488 152.965 279.93 142.287C283.47 138.272 286.683 133.786 289.769 129.436C298.156 117.7 306.127 106.596 320.486 103.342C341.697 98.5397 380.748 113.948 405.657 136.961C417.221 147.645 424.082 158.558 425.576 168.495C427.185 179.131 417.65 187.435 397.403 193.212C383.381 197.201 368.7 198.971 354.454 200.635C335.478 202.927 315.886 205.243 297.428 212.843C290.713 215.619 284.169 219.4 277.886 223.083C261.66 232.576 246.293 241.507 227.511 234.235C221.653 231.957 216.92 229.194 213.583 226.112C203.985 217.244 204.445 204.368 215.022 186.776C224.488 175.613 236.322 169.773 247.769 164.168Z" fill="#388379"/>
<path d="M521.089 550.088C519.471 549.092 517.666 548.346 515.737 547.786C503.541 544.301 489.167 547.91 476.349 557.618C461.415 568.943 451.708 586.117 451.708 601.362C451.708 602.98 451.833 604.66 452.019 606.216C452.953 612.936 456.438 618.288 462.411 622.208C474.359 629.986 494.706 630.172 507.836 626.439C515.427 624.261 522.334 617.851 527.25 608.393C531.73 599.806 534.281 589.227 534.281 579.334C534.219 565.706 529.427 555.003 521.089 550.088ZM506.84 622.829C496.324 625.879 476.225 626.688 464.465 619.034C459.424 615.736 456.5 611.256 455.753 605.656C455.566 604.225 455.442 602.794 455.442 601.3C455.442 587.175 464.526 571.121 478.589 560.542C490.474 551.582 503.666 548.221 514.742 551.332C516.36 551.768 517.853 552.452 519.222 553.261C526.44 557.555 530.547 567.013 530.548 579.334C530.486 597.006 521.463 618.66 506.84 622.829Z" fill="#388379"/>
<path d="M526.395 341.65C528.215 342.193 530.152 342.447 532.16 342.489C544.842 342.698 557.792 335.491 567.662 322.797C579.155 307.993 584.087 288.891 580.141 274.165C579.722 272.603 579.167 271.012 578.584 269.558C575.943 263.308 571.192 259.041 564.407 256.8C550.854 252.38 531.151 257.466 519.435 264.471C512.666 268.539 507.653 276.518 505.353 286.926C503.248 296.38 503.522 307.258 506.083 316.815C509.67 329.962 517.069 339.06 526.395 341.65ZM521.331 267.699C530.7 262.032 549.904 256.048 563.245 260.397C568.967 262.278 572.952 265.849 575.122 271.065C575.673 272.399 576.164 273.749 576.55 275.192C580.206 288.836 575.586 306.694 564.741 320.552C555.58 332.283 543.708 338.943 532.204 338.805C530.528 338.803 528.908 338.528 527.377 338.101C519.293 335.822 512.878 327.75 509.689 315.849C505.175 298.763 508.286 275.511 521.331 267.699Z" fill="#388379"/>
<path d="M429.446 286.665C426.804 288.191 423.778 291.288 424.41 297.263C424.997 302.854 429 311.11 432.965 314.927C438.671 320.438 450.073 319.138 457.735 314.715C463.194 311.563 466.391 307.134 466.389 302.556C466.404 301.667 466.28 300.74 466.043 299.821C464.842 294.995 460.086 290.52 453.073 287.525C445.851 284.473 435.742 283.03 429.446 286.665ZM463.126 300.565C463.281 301.239 463.365 301.895 463.381 302.532C463.34 306.019 460.744 309.455 456.209 312.073C447.756 316.954 438.69 316.2 435.042 312.729C431.635 309.471 427.962 301.788 427.442 296.922C427.073 293.436 428.241 290.883 430.971 289.307C435.594 286.638 444.185 287.079 451.944 290.349C457.953 292.926 462.144 296.729 463.126 300.565Z" fill="#388379"/>
<path d="M494.684 125.165C494.435 135.37 498.729 145.512 507.752 156.339C521.94 173.264 542.599 183.034 562.511 192.492C563.755 193.052 564.938 193.612 566.12 194.234C609.616 214.892 644.96 234.43 675.949 262.68C677.318 263.925 678.873 265.294 680.553 266.849C683.042 269.089 685.905 271.641 688.954 274.441L688.954 269.4C686.838 267.472 684.847 265.729 683.042 264.111C681.362 262.618 679.807 261.187 678.438 260.005C647.076 231.444 611.482 211.781 567.676 190.936C566.493 190.376 565.249 189.816 564.004 189.194C544.403 179.922 524.18 170.34 510.49 154.037C502.089 143.957 498.045 134.561 498.293 125.351C498.542 113.279 501.715 103.074 507.44 95.8562C513.662 88.0158 522.436 84.0954 533.575 84.3442C553.3 84.7173 571.159 93.4908 588.458 102.015C605.694 110.478 623.429 119.189 643.527 120.122C660.515 120.869 676.196 118.628 688.952 113.775L688.952 109.792C676.507 114.771 660.826 117.135 643.714 116.389C624.424 115.518 607.001 106.931 590.138 98.6553C572.528 90.0062 554.296 81.046 533.699 80.6107C510.302 80.0509 495.306 97.1632 494.684 125.165Z" fill="#388379"/>
</g>
</svg>
