<svg width="106" height="121" viewBox="0 0 106 121" fill="none" xmlns="http://www.w3.org/2000/svg">
  <path d="M0.293701 60.2049C0.312794 55.4311 0.790123 50.6883 1.71541 46.0957H9.92839C9.01045 50.6897 8.53606 55.4326 8.51844 60.2049H0.293701Z" fill="#FFB93E"/>
  <path d="M9.57154 46.3911C8.71381 50.7995 8.26292 55.3405 8.2262 59.911H0.58895C0.625668 55.339 1.08537 50.7966 1.95631 46.3911H9.57154ZM10.2897 45.8018H1.47752C0.512577 50.5034 0 55.4274 0 60.5003H8.81222C8.81222 55.4274 9.32479 50.5034 10.2897 45.8018Z" fill="#A86700"/>
  <path d="M15.1482 90.0605H6.33594C8.46409 94.6605 11.074 98.8744 14.0804 102.596H22.8926C19.8877 98.8744 17.2763 94.6605 15.1482 90.0605Z" fill="#A86700"/>
  <path d="M6.52061 89.7654C4.46002 85.279 2.88557 80.4786 1.83545 75.4912H10.047C11.0868 80.4742 12.6451 85.2731 14.6851 89.7654H6.52061Z" fill="#FFB93E"/>
  <path d="M9.81097 75.7876C10.8214 80.554 12.3078 85.151 14.2332 89.4725H6.71053C4.74688 85.1613 3.23117 80.5629 2.20161 75.7876H9.81097ZM10.2883 75.1982H1.47607C2.55704 80.4686 4.20346 85.4589 6.33454 90.0618H15.1468C13.0171 85.4575 11.3693 80.4686 10.2883 75.1982Z" fill="#A86700"/>
  <path d="M1.71858 74.9041C0.793296 70.3116 0.315968 65.5672 0.296875 60.7949H8.52161C8.5407 65.5672 9.0151 70.3101 9.93157 74.9041H1.71858Z" fill="#FFB93E"/>
  <path d="M8.22767 61.0894C8.26292 65.6583 8.71528 70.2008 9.57301 74.6092H1.95778C1.08684 70.2052 0.627136 65.6613 0.590419 61.0894H8.22767ZM8.81222 60.5H0C0 65.5729 0.512577 70.497 1.47605 75.1986H10.2883C9.3248 70.497 8.81222 65.5729 8.81222 60.5Z" fill="#A86700"/>
  <path d="M6.94531 30.3307C8.96919 26.0976 11.4146 22.1873 14.2198 18.6953H22.28C19.5145 22.1976 17.1029 26.108 15.1069 30.3307H6.94531Z" fill="#FFB93E"/>
  <path d="M21.6781 18.9917C19.0903 22.3407 16.8211 26.0507 14.9221 30.0377H7.41407C9.36598 26.0316 11.6997 22.3216 14.361 18.9917H21.6781ZM22.8927 18.4023H14.0805C11.1416 22.0401 8.58316 26.148 6.48145 30.6271H15.2937C17.3954 26.148 19.9539 22.0401 22.8927 18.4023Z" fill="#A86700"/>
  <path d="M38.3391 2.51047C41.5056 1.70305 44.7471 1.29492 48.0032 1.29492C48.5965 1.29492 49.1914 1.30818 49.7877 1.33618C48.1721 1.62791 46.5683 2.0213 44.9923 2.51194H38.3391V2.51047Z" fill="#FFB93E"/>
  <path d="M47.1601 1.5982C46.4169 1.78384 45.6796 1.98865 44.9468 2.21702H41.0664C43.08 1.84867 45.1171 1.6424 47.1601 1.5982ZM48.0031 1C43.9378 1 39.9913 1.62767 36.2227 2.80638H45.0378C47.4303 2.0579 49.8933 1.53337 52.4136 1.249C50.9596 1.08398 49.4894 1 48.0031 1Z" fill="#A86700"/>
  <path d="M14.7031 18.1087C17.4129 14.8304 20.4281 11.9587 23.674 9.56445H31.5066C28.34 11.9823 25.3997 14.8525 22.756 18.1087H14.7031Z" fill="#FFB93E"/>
  <path d="M30.6475 9.85889C27.7557 12.1485 25.0606 14.8183 22.6152 17.8137H15.3319C17.8992 14.78 20.7323 12.1088 23.7696 9.85889H30.6475ZM32.3909 9.26953H23.5772C20.1067 11.817 16.9181 14.8905 14.082 18.4031H22.8942C25.7303 14.8905 28.9203 11.817 32.3909 9.26953Z" fill="#A86700"/>
  <path d="M56.8155 120C56.8199 120 56.8257 120 56.8301 120H56.8008C56.8052 120 56.8111 120 56.8155 120Z" fill="#FBB03B" stroke="black" stroke-width="2" stroke-miterlimit="10"/>
  <path d="M24.4893 8.975C28.1889 6.36857 32.1471 4.39422 36.2668 3.10059H43.2402C39.4127 4.48557 35.7366 6.45697 32.2925 8.975H24.4893Z" fill="#FFB93E"/>
  <path d="M41.651 3.39502C38.3611 4.72991 35.1931 6.49946 32.1984 8.68008H25.4365C28.8733 6.3639 32.5245 4.58994 36.3123 3.39502H41.651ZM45.0364 2.80566H36.2212C31.7196 4.21423 27.4692 6.40958 23.5742 9.26943H32.3879C36.2844 6.40958 40.5348 4.21423 45.0364 2.80566Z" fill="#A86700"/>
  <path d="M1.83618 45.506C2.9098 40.4036 4.53419 35.4987 6.66528 30.9209H14.8298C12.7193 35.5046 11.111 40.4081 10.0477 45.506H1.83618Z" fill="#FFB93E"/>
  <path d="M14.3732 31.2144C12.3787 35.6272 10.8454 40.3288 9.80999 45.2101H2.20063C3.25516 40.3199 4.81933 35.6169 6.85495 31.2144H14.3732ZM15.2927 30.625H6.48043C4.28032 35.3148 2.58103 40.4098 1.47656 45.7995H10.2888C11.3932 40.4113 13.0911 35.3148 15.2927 30.625Z" fill="#A86700"/>
  <path d="M56.8153 1C55.3305 1 53.8618 1.08398 52.4122 1.24753C49.8919 1.53189 47.4289 2.0579 45.0364 2.80491C40.5333 4.21347 36.2829 6.40882 32.3879 9.26868C28.9173 11.8162 25.7288 14.8897 22.8912 18.4022C19.9524 22.04 17.3939 26.1479 15.2922 30.627C13.0921 35.3168 11.3928 40.4118 10.2883 45.8014C9.32483 50.503 8.81226 55.4271 8.81226 60.5C8.81226 65.5729 9.32483 70.497 10.2883 75.1986C11.3693 80.4689 13.0157 85.4593 15.1468 90.0621C17.2749 94.6621 19.8848 98.876 22.8912 102.598C25.6509 106.015 28.7455 109.017 32.1088 111.524C35.8041 114.279 39.8239 116.434 44.0788 117.883C46.7679 118.798 49.5526 119.43 52.4078 119.752C53.8544 119.916 55.3187 120 56.7992 120H56.8286C83.3313 119.99 104.815 93.3552 104.815 60.5C104.817 27.6389 83.3254 1 56.8153 1ZM86.5155 96.022C78.9766 105.586 68.4548 111.524 56.8153 111.524C38.1349 111.524 22.3361 96.2327 17.1207 75.1986C15.9663 70.5456 15.3318 65.6112 15.2966 60.5C15.2951 60.3527 15.2936 60.2053 15.2936 60.058C15.2936 55.1118 15.8576 50.3277 16.9077 45.8014C18.1826 40.3116 20.1741 35.1974 22.7488 30.627C25.4027 25.9151 28.6779 21.7792 32.4261 18.4022C39.2732 12.2317 47.702 8.59239 56.8153 8.59239C67.2402 8.59239 76.7662 13.3544 84.0568 21.2179C92.8044 30.6535 98.3356 44.5549 98.3356 60.058C98.3356 74.0537 93.8281 86.744 86.5155 96.022Z" fill="#FFB93E" stroke="#A86700" stroke-width="2" stroke-miterlimit="10"/>
  <path d="M22.8942 102.598H14.082C16.8417 106.014 19.9363 109.017 23.2996 111.523H32.1118C28.7485 109.017 25.6539 106.014 22.8942 102.598Z" fill="#A86700"/>
  <path d="M56.8154 8.5918C47.7021 8.5918 39.2747 12.2311 32.4261 18.4016H32.5656H32.4261C28.678 21.7787 25.4043 25.9145 22.7488 30.6264H23.3216H22.7488C20.1742 35.1968 18.1812 40.311 16.9078 45.8008H17.159H16.9078C15.8577 50.3286 15.2937 55.1112 15.2937 60.0574C15.2937 60.2047 15.2952 60.3521 15.2966 60.4994H16.0398H15.2966C15.3319 65.6106 15.9664 70.545 17.1208 75.1979H17.1604H17.1208C22.3361 96.2321 38.135 111.523 56.8154 111.523C68.4549 111.523 78.9767 105.587 86.5155 96.0214C93.8282 86.7434 98.3356 74.0531 98.3356 60.0574C98.3356 44.5543 92.806 30.6529 84.0569 21.2173C76.7663 13.3538 67.2403 8.5918 56.8154 8.5918ZM56.8154 107.209C35.8056 107.209 18.7745 86.0981 18.7745 60.0574C18.7745 34.0166 35.8056 12.9059 56.8154 12.9059C77.8237 12.9059 94.8548 34.0166 94.8548 60.0574C94.8548 86.0981 77.8237 107.209 56.8154 107.209Z" fill="#A86700"/>
  <path d="M48.0032 120H56.8007C55.3203 120 53.8545 119.915 52.4093 119.753C50.9582 119.916 49.488 120 48.0032 120Z" fill="#FBB03B" stroke="black" stroke-width="2" stroke-miterlimit="10"/>
  <path d="M32.1088 111.523H23.2966C26.9919 114.279 31.0117 116.434 35.2666 117.883H44.0788C39.8239 116.434 35.8041 114.279 32.1088 111.523Z" fill="#A86700"/>
  <path d="M44.0788 117.883H35.2666C39.3232 119.263 43.5927 120 48.0032 120C49.4881 120 50.9582 119.916 52.4093 119.753C49.5527 119.43 46.768 118.798 44.0788 117.883Z" fill="#A86700"/>
  <path d="M56.8153 12.9062C35.8055 12.9062 18.7744 34.017 18.7744 60.0577C18.7744 86.0985 35.8055 107.209 56.8153 107.209C77.8236 107.209 94.8547 86.0985 94.8547 60.0577C94.8547 34.017 77.8236 12.9062 56.8153 12.9062ZM56.8153 102.598C54.997 102.598 53.5239 101.12 53.5239 99.2956C53.5239 97.4716 54.997 95.9938 56.8153 95.9938C58.6335 95.9938 60.1066 97.4716 60.1066 99.2956C60.1066 101.118 58.6335 102.598 56.8153 102.598ZM56.8153 24.1512C54.997 24.1512 53.5239 22.6734 53.5239 20.8493C53.5239 19.0252 54.997 17.5474 56.8153 17.5474C58.6335 17.5474 60.1066 19.0252 60.1066 20.8493C60.1066 22.6734 58.6335 24.1512 56.8153 24.1512Z" fill="#FFB93E" stroke="#A86700" stroke-width="2" stroke-miterlimit="10"/>
  <path d="M57.5713 24.0586C59.3404 23.6396 60.4359 21.8612 60.0181 20.0865C59.6004 18.3118 57.8277 17.2128 56.0586 17.6319C54.2896 18.0509 53.1941 19.8293 53.6118 21.604C54.0295 23.3787 55.8023 24.4777 57.5713 24.0586Z" fill="#A86700"/>
  <path d="M57.5752 102.502C59.3443 102.083 60.4398 100.305 60.022 98.5298C59.6043 96.7551 57.8316 95.6562 56.0625 96.0752C54.2935 96.4943 53.198 98.2727 53.6157 100.047C54.0335 101.822 55.8062 102.921 57.5752 102.502Z" fill="#A86700"/>
  <path d="M70.4025 58.0641C73.5837 55.7376 75.1258 52.4946 75.1258 48.375C75.1258 44.7888 73.9552 41.7507 71.5936 39.1708C69.4243 36.8001 66.8071 35.4446 63.6817 35.0629V30.3451C63.6817 29.2828 62.8607 28.362 61.8443 28.2868C60.8221 28.2117 59.9908 29.0206 59.9908 30.0917V34.8198L57.7217 34.6902V29.937C57.7217 28.86 56.8772 27.9244 55.8314 27.8477C54.7799 27.7711 53.9236 28.5889 53.9236 29.6762V34.4721L47.5068 34.1038C45.3611 33.98 43.606 35.6479 43.606 37.8285V80.0589C43.606 82.2395 45.3611 83.9059 47.5068 83.7821L53.9236 83.4108V88.024C53.9236 89.1114 54.7799 89.9306 55.8314 89.8525C56.8772 89.7759 57.7217 88.8403 57.7217 87.7632V83.1913L59.9908 83.0602V87.607C59.9908 88.6782 60.8221 89.4871 61.8443 89.4119C62.8607 89.3368 63.6817 88.4159 63.6817 87.3536V82.8465L64.1472 82.82C67.8087 82.6078 70.8416 81.158 73.2738 78.4882C75.678 75.8508 76.8985 72.6919 76.8985 68.9878C76.8985 64.0284 74.387 60.1342 70.4025 58.0641ZM50.1461 42.8262C50.1461 41.481 51.2138 40.4364 52.5239 40.4924L62.7167 40.9315C63.0487 40.9462 63.3703 40.983 63.6817 41.042C65.1371 41.319 66.3709 42.0851 67.4269 43.2992C68.7619 44.7667 69.3949 46.4729 69.3949 48.4266C69.3949 52.1234 67.0039 55.0642 63.6817 55.521C63.3688 55.5652 63.0457 55.5858 62.7167 55.5829L52.5239 55.5033C51.2138 55.493 50.1461 54.3938 50.1461 53.0486V42.8262ZM64.1472 76.8837L52.0686 77.4082C51.0082 77.4539 50.1446 76.6111 50.1446 75.5238V63.4478C50.1446 62.3605 51.0082 61.475 52.0686 61.4676L64.1472 61.3939C66.1461 61.3821 67.8087 62.1159 69.1423 63.5878C70.5288 65.0494 71.219 66.8499 71.219 68.9289C71.219 73.2223 68.1906 76.7084 64.1472 76.8837Z" fill="#A86700"/>
</svg>
